<svg xmlns="http://www.w3.org/2000/svg" id="svg2" width="32" height="32" version="1.1">
<style>.icon{fill:#ffffff}@media (prefers-color-scheme:dark){.icon{fill:#000000}}</style>
<path class="icon" d="M16 0C7.2 0 0 7.2 0 16s7.2 16 16 16 16-7.2 16-16S24.8 0 16 0Zm0 28.4C9.2 28.4 3.6 22.8 3.6 16 3.6 9.2 9.2 3.6 16 3.6c6.8 0 12.4 5.6 12.4 12.4 0 6.8-5.6 12.4-12.4 12.4z" opacity=".2"/>
<path class="icon" d="m22.2 5.2 1.8-3C21.6.8 19 0 16 0v3.6c2.2 0 4.4.6 6.2 1.6z">
<animateTransform fill="remove" accumulate="none" additive="replace" attributeName="transform" attributeType="xml" calcMode="linear" dur="1s" from="0 16 16" repeatCount="indefinite" restart="always" to="360 16 16" type="rotate"/>
</path>
</svg>
